<svg id="Group_68" data-name="Group 68" xmlns="http://www.w3.org/2000/svg" xmlns:xlink="http://www.w3.org/1999/xlink" width="171.557" height="178.13" viewBox="0 0 171.557 178.13">
  <defs>
    <linearGradient id="linear-gradient" y1="0.499" x2="1" y2="0.499" gradientUnits="objectBoundingBox">
      <stop offset="0" stop-color="#9f4f4f"/>
      <stop offset="0.29" stop-color="#d6b1af"/>
      <stop offset="0.5" stop-color="#fdf6f3"/>
      <stop offset="1" stop-color="#9f4f4f"/>
    </linearGradient>
  </defs>
  <rect id="Rectangle_32" data-name="Rectangle 32" width="165.397" height="148.417" transform="translate(3.604 26.133)" fill="#fff"/>
  <path id="Path_4745" data-name="Path 4745" d="M193.581,164.986c-2.432,0-1.15.8-1.658,1.26-2.9.243-1.349-.6-2.321-1.017-1.813.221-3.184.973-4.422.951,0-.155-.354-.2,0-.354-1.923.641-5.66,0-7.893.84a.641.641,0,0,1-.287-.2,1.194,1.194,0,0,1,.332,1.105c-1.083,0-2.012.531-2.41,0a1.37,1.37,0,0,0,1.017-.376l-1.128.243c-1.017-.774,1.548-.265,1.548-.84a34.623,34.623,0,0,1-6.5.663c-.354-.752,3.98-.243,1.7-.929l2.631.287c-2.012-1.172,1.614,0-.243-1.172-3.449-.221-3.869.376-7.318.155-.774.42.265.619-.509,1.039-4.908.752-3.869-1.879-7.473-.884a3.935,3.935,0,0,1-3.869.951l.884-.862c-3.361,0-1.923,1.238-5.417.663.619-.332,2.631-.287,2.211-.4-2.211-.663-1.614.486-3.361.486l-.354-.752c-3.56.133-7.495.663-11.452.8.221-.221.906-.442,0-.685a96.642,96.642,0,0,1-15.476-.531l-1.835.641c-.42,0-.8-.287-.332-.42-1.879-.243,0,.42-.995.663s-1.415-.354-.73-.553a44.837,44.837,0,0,1-12.89.486l.663-.2c-2.7-.265-3.051,1.327-5.571.73h.486c-2.941-.155-6.036,0-8.844,0-1.459,0-2.874,0-4.2-.133a7.017,7.017,0,0,1-1.946-.177l-.84-.133a1.149,1.149,0,0,1-.243-.155c-.221.376-.708.376-1.128.332,0-.73.221-1.238-.553-1.393a37.012,37.012,0,0,0,1.327-7.141c0-1.26-.818-1.879-.951-3.427h.685l-.73-2.211.818-1.128-.508-1.57c0,.575-.31,1.238-.486,1.15a10.369,10.369,0,0,1,.818-5.571l-.575-5.505c.265,0,.354,1.017.531,1.747-.685-2.9.73-.531,0-3.184-.155.354-.4-.177-.553-.243a22.616,22.616,0,0,0,.243-6.633l.486.42c0-4.024-.243-8.468-.221-12.978-.221,1.614-1.039,1.26-1.105,0l.707-.531c-.442-.862-.265,1.371-.818-.376,0-1.68.818-1.128,1.061-.155l-.265-2.056c.221-.111.332.354.619.486-.442-.84.708-3.537,0-4.753l.221-.111c0-4.422-.243-6.633-.287-10.214-.619,0-.464-1.5-.973-2.609.2-2.7.685-5.682.641-8.844-.31-2.211-.531-.663-.906-1.7.575-.155.508-3.4.929-1.725-.111-3.891-.133-4.974-.575-9.9-.243.531-.332,1.128-.531.818,0-.884.243-2.034.509-1.9v.221c-.862-5.527,1.636-12.779.464-17.179v.243l-.619-4.577c0-2.211.42,1.26.774-.287-.951-4.93.133-7.782-.486-11.85,1.658-3.139-.133-11.165.929-15.476l-.376.243c-.4-1.083.221-1.327.31-2.211-.31.111-.354,1.194-.575.509V22.538l3.383.111,5.969.287c3.98.221,7.981.486,11.917.641,3.493.111,1.99-2.034,6.367-1.105l-1.238.73c7.031-.862,14.371,0,21.247-.707-.4.177-.42.4-1.083.4a8.844,8.844,0,0,0,5.395-.42c1.083,0,.243.4.906.619,1.459.31,3.67-.685,4.422-.155.133,0-.42.177-.685.221.951-.265,4.422,0,3.515-.553,2.587.287,4.952-.265,7.009,0,1.349-.685,4.422.332,4.842-.641-.177.995,4.422.818,6.168.332-.553.31,1.415.332.774.752,1.879,0,3.582-.2,3.25-.73,3.427,1.194,6.9-.951,8.844.575,5.527-.531,10.656-.906,15.631-1.128-.177.995-5.505,0-5.284,1.15a75.413,75.413,0,0,1,12.138-1.039c1.216.133-.685.442-1.105.6,4.731-.4,9.131.111,13.265-.442a4.4,4.4,0,0,1-.884.265c.818,0,1.923.155,1.813-.31l-.8.133c-1.327-.663,3.294-1.371,3.427-1.724-1.393,1.3,4.156.332,1.923,1.968.553,0,1.238-.31,1.105-.6.8,0,1.061.265.243.6,2.963-.243,1.9-.73,4.6-.707,0,.221-.553.31-.84.553a11.916,11.916,0,0,1,5-.663c-.133.133.133.31-.531.31,3.891,0,6.633-1.15,10.922-.73-1.282.951,1.437.31,1.68,1.128l2.211-.243-.929-.4a20.12,20.12,0,0,0,2.874-.265,7.251,7.251,0,0,1,2.211,0,7.251,7.251,0,0,1-1.128.332l2.344-.155c-.31-.111-.663-.2-1.105-.31.752-.221.929-.486,1.039-.663s.309-.265,1.371-.155h0a9.4,9.4,0,0,1-.464,2.764h0a7.539,7.539,0,0,1,.332,3.383c-.265.4-.929-.31-1.083,0,.685.973.177,4.709.906,5.947-.155-.4-.6-.42-.685-.287l.553.818c-.177.929-.265,1.061-.6.929,0,2.808,1.039-.906.6,2.432,0-.265-.133-.133-.221-.685-.243,3.338.354,6.478,0,9.551-.84.906-.221-2.7-.906-1.658.133,4.422.995,9.175.8,13.464v-.8c1.172.6-.575,3.206,0,5.372,0-.531-.663-.707-.531-.553a79.309,79.309,0,0,0,.663,10.458l-.309-.553c-.265,1.724-.155,4.554-.287,6.434.309.553.265,1.614.685.973-1.7,5.77.929,11.054-.509,16.117,0-.619-.265-1.459-.265-.973l.287,4.422c.509-.354.31-.575.708-1.481a6.966,6.966,0,0,1,.531,2.852c-.332-1.946-.818,0-1.105.862.155-.133.332.155.486,0-.906,2.211,1.039.376.42,3.493l-.265-.177a19.9,19.9,0,0,1,.42,3.493c-.6.531-.287-1.238-.774-1.327,0,1.769,1.128,3.493.531,5.085-.155-.752-.155-1.835-.332-2.587a7.517,7.517,0,0,0-.619,3.228h0l.111,2.985.2-.774c1.548,2.211.287,4.422,1.282,7.473-.951-2.9-.553-.486-1.216-.707-.177.752-.4,1.923-.575,1.592.531,1.393-.442,2.344.354,4.422-.221,0,0,1.5-.553,1.194.155,1.835.376-.442.641-.287.73,2.83-.907,6.633.111,10.679.42,3.471,1.15,4.134,1.5,7.362-.332,1.105-.774-.884-.774-.884a13.266,13.266,0,0,0,0,4.753c-.177-.354-.332,0-.575.508,0,1.327.774.884.464,2.653a4.157,4.157,0,0,1-.862-1.326c.177,1.57.6,3.117.774,4.731-.376.442-.553-.973-.8-1.548a14.55,14.55,0,0,0,.929,5.306l.221-1.172c0,.663-.531.332-.641-.155-.464-1.57.221-2.211.442-2.344l.133,1.15c1.26-1.194-.2-4.643-.133-6.986l.929.973-.774-2.388c.243-.509.752-.862.884.287.464-1.658-.31-1.459.177-2.9,0-.177.133,0,.177,0l-.287-1.636c.2.332.663-.265.531.73.531-2.918-.708-4.709,0-5.815v.243c-.31-4.068-.685-.4-1.481-3.449l1.68-2.056-.685-.4c0-.42,0-1.26.354-1.105-.464-1.548-.31.265-.73-.641.6-2.012-.287-5.571.774-6.014-.508-.73-.4,1.923-.752-.221,1.15-.619-.2-2.5.332-4.422.6.575.287,2.211.818.486-1.017-1.128.221-3.6,0-5.151-.8,0-.332-3.383-.6-6.014a71.532,71.532,0,0,0,.73-7.34h.133c-.818-.464-.663-2.963-.818-4.8.486,0,.663.4.884,1.393V98.129a4.178,4.178,0,0,1-.486-2.034l.6.42a42.383,42.383,0,0,1-.309-7.539c-.553-.155-1.57,2.344-1.946-.774.31-.111.84-.221.951.6a3.735,3.735,0,0,1-.11-1.481l.508,1.238c.221-1.349-.442-.707-.376-1.769.42,0,.31-.8.641-.641s-.177.929,0,1.349a8.843,8.843,0,0,1,.663-3.162c-.243,0-.575,0-.641-.884,0-2.211.531-.774.752-2.211-.31-.553,0-2.012-.641-2.056,0-.663.31-.8.486-1.061-.287-1.172,0-5.505-.774-4.179v.111h0c-.641-3.869.376-8.048,0-11.895h.221a50.629,50.629,0,0,0-.619-6.633c0-.663.4-1.592.663-1.3a12.887,12.887,0,0,1,0-4.422c.376,1.769.332-.6.287,1.813a12.006,12.006,0,0,0,0-5.24c.553.84.707-1.724.531-2.808l-.4,1.614a28.521,28.521,0,0,1,0-3.383l.73.6c.906-4.665-1.526-8.423,0-11.961-.508-1.238-.354,2.52-.973,1.415a37.565,37.565,0,0,1,1.172-5.041,4.753,4.753,0,0,0-.354-2.852,7.277,7.277,0,0,1-.376-1.614,11.76,11.76,0,0,1,0-2.609c-.243.73-.818,1.349-1.105-.111l-.906.111c-2.211,0-2.963-1.105-.84-1.3.774,0,1.105,0,.995.155,1.039-.111,2.587-.221,1.526-.509l-.663.265c-.685-.133-2.211-.2-3.449-.265H242.4c-.2,0-.243-.133,0-.243-1.636.243-.708.42.508.575-2.764-.4-4.311,0-7.141-.287.442.155.862.464.42.464-4.156-.332-1.835.486-4.643.619-1.614-.42.575-.973-2.211-.619-1.724-.287-.354-.707.332-.929a19.677,19.677,0,0,1-6.3-.42l1.349-.2a14.833,14.833,0,0,1-2.211,0l.774.531c-.8,0-1.481,0-1.459-.31-.818.332.619.862-1.017,1.327-1.061-.265-3.228.287-3.6-.4,3.361.243-.376-.707,2.476-.818a7.76,7.76,0,0,1-2.034,0,.681.681,0,0,1,.332-.2c-3.206-.619-1.459.8-4.776.774.42-.4-.774-.752-1.327-.663,1.349,0,.641.663-.575.951-2.211-.287-2.321.243-3.449.2l1.282.155c-.42.376-1.5.332-2.985.464-.133-.31,1.349-.221.818-.354-1.636.685-3.714-.707-6.014-.243-1.061-.265-.111-.752-1.039-.929-2.587.509-2.786-.531-5.505-.111.774.531.929.4-.995.906l4.422-.376-2.874.774c1.349,0,2.852-.332,3.648-.243-1.371.442-1.216.31-.575.752-1.835-.8-3.648.442-5.77,0v-1.3c-3.206-.575-5.682.663-9.838.354l1.349.221c-.553.509-2.565,0-3.913.287.133-.442-.708-.6-1.282-.884,0,.332-3.051,0-3.427.862l-1.835-.575c-3.361-.243-3.825,1.238-7.053,1.083.973-.464-.486-.774,1.658-1.128-1.061,0-2.034,0-2.056.221-.619-.265-2.985.6-3.958.177a2.675,2.675,0,0,1-1.813.619c-.133,0,0-.221,0-.221s-1.879.287-.84.774c-3.316-1.371-9.241.111-12.138-1.061-2.344.133-5.173.287-7.3.31.133-.133,0-.221.4-.177-2.94-.4-1.791,1.26-5.151.8-1.7-.685,1.791-.376.73-.641-.464-1.437-4.046.2-6.3-.641h.553c-1.725-.486-4.2.553-7.009.442,0,0,.133-.133,0-.221a37.874,37.874,0,0,1-8.269,1.194c.84-.575,1.216-.31.707-.884-1.216,0,.354.929-2.056,1.083-.8-.31-2.543-.575-2.764-1.194h2.211c-1.172-.8-2.94,0-4.156-.111l.155-.354c-3.493.111-3.537.995-7.3.929l.376.265c-2.056.862-1.724-.486-3.758.155l-.619-.884c-1.371.221-4.753.84-7.185,1.017a38.647,38.647,0,0,1,5.992-1.371,18.438,18.438,0,0,0-5.262.508,4.709,4.709,0,0,1,1.747-.177,16.847,16.847,0,0,1-6.5,1.017c.155-.553-.531-.8-1.592-.906a23.437,23.437,0,0,1-2.565-.111H79.123a16.98,16.98,0,0,1-.685,5.129c.641,4.908-.265,9.44-.155,14.99,1.3-1.946,0,1.614,1.393,1.282a4.887,4.887,0,0,1,0,1.879l-.84,3.515c-.4.929-.287-1.216-.6-1.105,0,2.83-.575,1.194-.929,3.051.486-.376.685.973.508,2.587l.619-2.211c.707,3.935-1.128,3.383-.42,7.362l-.42-1.26c.243,2.034,0,7.495,1.061,9.507-.155.354-.508.818-.619,0-.155,4.864,1.15,10.811.486,14.592l-.332-.376c0,.906.619,1.592.287,2.719-.133,0-.332-.354-.354,0a10.48,10.48,0,0,1,.4,3.6l-.376-1.039c-.42,4.753.906,7.274,1.128,11.253-.973,0-1.282,3.736-1.437,5.594h-.133a130.623,130.623,0,0,0,1.128,14.371c-1.039,3.184-.442,10.745-1.017,15.852.177-.774.752.133.84,1.039s.685,3.294-.221,3.117v-.42c-.862.884-.641,3.361-.663,5.262l1.172.332c-1.7,5.019.619,13.265-.906,15.9.31,1.216.287,2.719.6,3.913H78c0,1.68-.133,2.94-.155,4.311V171c-.155-.354-.287-.774-.442-1.216a12.339,12.339,0,0,0,.133,2.012c3.316-.442,5.2-1.68,7.23-1.7l.641.929c4.09,0,8.225.818,12.27,0,0,.133-.2.42-.862.442,1.923,0,7.451.641,6.633-.641,0,.84,4.223,0,6.434-.287l-.354.619a9.839,9.839,0,0,1,4.422-1.216c.619,0,.531.486-.287.332,2.056.31,1.592-.6,4.09-.265l-.929.4a4.864,4.864,0,0,0,3.117-.619,6.632,6.632,0,0,1,4.311.708,3.538,3.538,0,0,1,2.7-.619c.155.2-.287.332-.531.4,3.537.42,5.262-.73,7.694,0a.464.464,0,0,0,.4.354h-4.842c0,.575,2.211.663.464,1.459A23.037,23.037,0,0,1,137.269,171a.773.773,0,0,1,.287.177h-.221a4.113,4.113,0,0,0,1.393,0,17.7,17.7,0,0,0,1.835.177c.243.464,2.587.243,3.714.265,0-.619,1.393-.508,0-1.017h-.951a2.58,2.58,0,0,0-.486,0h-2.808a4.731,4.731,0,0,1,3.073-.221c.6-.4,1.238-.818,1.592-1.017,1.548.884,4.532,1.349,4.93,1.879,3.471-.354,8.136-.221,10.3-1.393.995-.155,1.128.332,1.5.508a9.178,9.178,0,0,0-1.548.265c1.968-.287,5.815-.111,6.279-.929,2.476.376-1.393.752,2.012.619l-.464.243c6.633,1.3,10.878-2.078,18.284-.4a1.029,1.029,0,0,1-.862-.287c8.446.73,17.4-.685,25.735.464a7.318,7.318,0,0,0,4.09-.663l.508.663,2.476-.774c3.493-.575,6.08,1.636,10.5.575l-.575-.442c1.614,0,5.063-.265,4.8.243a1.172,1.172,0,0,1,1.15-.243v.354l3.913-.6c3.029.265-.464,1.393,3.957,1.459,1.658-.133,4.687-1.017,4.068-1.26s-1.7-.221-1.747-.553l1.5-.2c.287-1.017,1.437-2.078-2.211-2.786l-2.587.619-.818-.486h2.211a3.736,3.736,0,0,0-2.9.243,1.636,1.636,0,0,0-1.061-.553l-2.543.973c-.31-.4,1.128-.8-.553-1.017-1.194.464,1.128.906-.84,1.194-1.238-.464-.862-.84-2.321-.442-.2-.265.111-.442.685-.553-1.282.332-3.4.133-4.068.685-1.282-.575-4.422.155-4.223-.818a12.026,12.026,0,0,1-3.449.8c2.211-1.172-4.422,0-3.869-1.327-1.592,1.061-5.77.486-8.6,1.061a1.061,1.061,0,0,1,.708-.2,14.769,14.769,0,0,1-3.073-.6c-.221.862-2.7,1.061-4.024,1.592-1.968-.84,1.172-1.017.553-1.813.111.685-3.383.685-2.719,1.282-1.5-.531-1.282-.265-2.056-.973-.265,1.083-1.393.177-2.631.84-2.211-.531-.553-1.017-2.941-.685C191.458,165.362,193.581,164.986,193.581,164.986Zm-56.532,1.879h0Zm-4.753,0h2.056c.177.221,0,.442-.486.42.243-.111-.862-.243-1.57-.42Zm10.06,4.311c-.752,0-1.017,0-1.105-.155h1.3A.954.954,0,0,1,142.354,171.176Z" transform="translate(-77.31 6.048)" fill="#ab6565"/>
  <path id="Path_4746" data-name="Path 4746" d="M78.94,29.879,93.311,8.19H233.548l10.789,21.689" transform="translate(-75.337 -4.63)" fill="url(#linear-gradient)"/>
  <path id="Path_4744" data-name="Path 4744" d="M91.181,20.442c.42-.6-.486-.73-.8-1.128.287-.862.73,0,1.238,0,.133-.575-.265-1.327,0-1.658a.272.272,0,0,1,.31.177c-.221-.84.929-1.437.619-2.454a.354.354,0,0,1,.221,0,3.8,3.8,0,0,1-.995-.553c.177-.265,0-.8.42-.6-.133.155,0,.287.133.464v-.42c.818.177,0,.553.442.862.155-.707,0-1.7.531-2.012.685.332-.464,1.15.464.929l-.663.509c1.327.155-.354.354,1.017.6.752-.73.4-1.26,1.039-1.857-.31-.31-.509-.332-.8-.663,0-.906.818.111.995.4s0,0,0-.177-.243-1.437.243-.929v.84c0,.287.42-.265.531-.508s.287-.42.84-.133c-.2.332-.818.265-.663.376.707.663.486-.486,1.017-.486v.752c1.083-.111,2.211-.663,3.471-.8,0,.221-.265.464,0,.685a9.22,9.22,0,0,1,4.687.531l.575-.619c.133,0,.243.287,0,.42.575.243,0-.42.31-.663s.42.376.221.575c1.017-.553,2.852-1.194,3.913-.509l-.022.2c.818.265.929-1.327,1.68-.73l-.133.066c1.769.265,3.758-.332,5.107.663.265-.951,1.769.42,1.879-.884,1.039.641.73.862,2.211,1.3.4,0,.575-.818,1.061-.951v.752l.641-.73.354.818.442-.177a.509.509,0,0,1-.354-.486,1.481,1.481,0,0,1,1.7.818l1.658-.575c0,.265-.31.376-.531.531.862-.685.155.73.951,0v-.531a2.211,2.211,0,0,0,1.99.221l-.133.486c1.216.111,2.565-.221,3.935-.221-.486-.221-.376-1.039,0-1.105l.155.707c.265-.442-.42-.265,0-.818.508,0,.354.818,0,1.061l.619-.243c0,.2-.111.31-.155.6.243-.442,1.061.73,1.437,0v.221c1.371,0,1.99-.243,3.1-.265,0-.641.464-.486.8-.995a9.44,9.44,0,0,0,2.7.641c.707-.31.221-.531.531-.906,0,.575,1.017.509.509.929a9.9,9.9,0,0,0,3.228-.553c-.155-.243-.332-.332-.243-.531a.509.509,0,0,1,.575.509h0c1.68-.862,3.891,1.636,5.218.464h0l1.371-.619c.641,0-.376.42,0,.774,1.5-.951,2.366.133,3.6-.486.951,1.658,3.383-.133,4.687.951v-.4c.332-.4.4.221.663.31,0-.31-.376-.354-.155-.575a31.97,31.97,0,0,1,8.6,1.061c1.039,0,.6-2.034,1.923-1.083l-.376.73c2.211-.884,4.422,0,6.456-.707-.133.155-.133.376-.332.376.442.531,1.614,0,1.636-.4.332,0,0,.376.265.6s1.128-.663,1.349-.133c0,0,0,.155-.2.2.287-.243,1.349,0,1.061-.553.8.31,1.5-.265,2.211.111.42-.685,1.349.31,1.481-.641,0,.995,1.371.8,1.857.332-.155.31.442.31.243.73.575,0,1.083-.2.995-.707,1.039,1.194,2.078-.973,2.675.553a32.633,32.633,0,0,1,4.709-1.172c0,.995-1.68.111-1.614,1.15,1.437-.42,2.211-1.26,3.692-1.017.354.133-.221.42-.332.6,1.415-.42,2.764,0,4.046-.464a1.622,1.622,0,0,1-.287.287c.265,0,.6.133.553-.31h-.243c-.4-.641.995-1.371,1.039-1.724-.42,1.3,1.26.332.6,1.968a.575.575,0,0,0,.332-.6c.243,0,.332.265,0,.619.907-.243.6-.73,1.393-.73,0,.221-.155.31-.243.575.42-.442.818-.862,1.526-.685,0,.133,0,.31-.177.31,1.194,0,2.012-1.15,3.316-.73-.376.951.442.31.508,1.15l.708-.243-.221-.155c.619,0,1.15-.575,1.68-.31l-.464.332,1.15-.155-.641-.31c.619-.42,0-1.039.752-.818a1.47,1.47,0,0,1,.929.509h0c.287-.265.6-.531,1.061-.332V11.93c.31-.685,1.437-.2,1.813-.929a1.039,1.039,0,0,0,0,.707l.243-.575c.287.177.332.265.287.619.84,0-.287-1.061.73-.6,0,0,0,.133-.2.221,1.017.221,1.968-.376,2.9,0,.265.84-.818.2-.508.906,1.349-.155,2.786-.995,4.09-.8H224.3c.177-1.194.973.575,1.636,0-.177,0-.221.641-.177.509a7.694,7.694,0,0,0,3.184-.641l-.177.287a9.617,9.617,0,0,0,1.946.287c.177-.287.508-.243.309-.685a2.012,2.012,0,0,0,.8.509.884.884,0,0,0,.508,0,8.487,8.487,0,0,0,1.15-.42,1.039,1.039,0,0,1,.287,1.327c0-.111-.332,0-.287,0l.287.265.4.509c.42-.31.2-.287.442-.707a1.083,1.083,0,0,1,.862.531c-.575-.376-.73.376-.862.73a.585.585,0,0,0,.442-.2c-.508,1.017.973-.354.84.752h-.265c.287.243.752.376.84.752-.464.42-.42-.2-.862,0,.265.464,1.481.464,1.172,1.15-.243-.133-.4-.42-.641-.553-.4.8-.221.752-.133,1.172h0l.111.951V17.7c1.68,0,.862,1.105,2.211,1.459-1.238-.354-.553.111-1.194.354,0,.287,0,.707-.31.685.685.155,0,.84.929,1.017-.2.133.177.42-.354.575.4.42.287-.287.553-.354,1.039.42,0,2.211,1.526,2.83.862.774,1.592.619,2.344,1.349-.155.442-.818.111-.818.111a1.327,1.327,0,0,0,.641,1.282c-.221,0-.31.155-.464.4.221.354.818,0,.774.531a3.361,3.361,0,0,1-.951,0c.4.332.951.575,1.349.929-.265.287-.641,0-.929,0,.4.42.929,1.15,1.548,1.039v-.42c.133.177-.4.31-.575.243-.619-.221,0-.707,0-.84l.287.265c.973-.884-.818-1.172-1.061-1.857l.951-.133-.995-.31c.133-.243.553-.575.818-.31.2-.663-.486-.265-.221-.884h.155l-.464-.332c.2,0,.531-.354.553,0,0-1.039-1.26-.995-.774-1.592h0c-.818-.973-.641.177-1.769-.287l1.216-1.3-.663.2c0-.133-.111-.376.155-.464-.619-.221-.221.221-.73.155.265-.818-1.017-1.393,0-1.99-.553,0,0,.707-.707.287.951-.685-.508-.6-.287-1.327.619,0,.575.486.8-.243-1.061.155-.287-1.083-.663-1.415-.73.332-.774-.774-1.371-1.349.265,0-.265-1.548-.332-2.344h.133c-.8.221-.995-.531-1.393-.951a1,1,0,0,1,.995,0l-.287-.774a.774.774,0,0,1-.707-.332l.6-.155a6.628,6.628,0,0,0-.929-1.128,2.985,2.985,0,0,1-.73-1.548c-.332.531-.663,1.946-1.238,1.769h-.155a1.9,1.9,0,0,1,.73-.818h0c-.133,0-.42.221-.509.111a6.083,6.083,0,0,1,.73-.509c-.376-.243-.509.42-.84.376.2-.442-.155-.31,0-.663s.287.177.531,0a1.636,1.636,0,0,1-1.083-.685.663.663,0,0,1-.509.663c-.906,0-.265-.531-.84-.752-.155.287-.6,0-.619.641-.2,0-.243-.31-.31-.486-.376.287-1.68,0-1.282.774h0c-1.172.663-2.454-.376-3.626,0V8.968c-.707.265-1.57.155-2.056.619a.6.6,0,0,1-.4-.663c-.531.177-.6.42-1.371,0,.553-.4-.177-.354.553-.287-.685-.2-.84-.531-1.592,0,.265-.575-.509-.707-.84-.553l.486.4a2.609,2.609,0,0,1-1.017,0l.177-.752c-1.415-.884-2.565,1.526-3.648,0-.376.509.774.354.442.951-.641,0-1.327-1.15-1.525-1.15-.906-.42-.84,1.061-1.769.8a.884.884,0,0,1-.464,1.216c-.663,0-.8-1.105-.4-1.327s.243,0,.221.155.486-.2.243-.486V8.15c-.332-.265-1.216-.243-1.017-.685-.486.265-.2.442.155.575-.84-.376-1.3,0-2.211-.265.133.133.265.442.133.442-1.26-.31-.553.509-1.415.619-.486-.4.177-.951-.685-.619-.531-.265-.111-.707,0-.906-.8.509-1.481-.332-1.923-.42l.42-.221a1.238,1.238,0,0,1-.663,0l.243.531c-.243,0-.464,0-.442-.31-.265.354.177.884-.31,1.349-.332-.265-.995.287-1.105-.42,1.017.243-.111-.685.752-.8a.862.862,0,0,1-.619,0,.155.155,0,0,1,0-.177c-.973-.641-.442.774-1.459.774.133-.4-.221-.752-.4-.663.42,0,.2.641-.177.951-.641-.31-.707.221-1.039.2l.4.133c-.133.4-.464.332-.906.464,0-.31.4-.2.243-.354-.508.707-1.128-.707-1.835-.243-.31-.265,0-.73-.31-.906-.774.509-.84-.553-1.68-.133.243.531.287.4-.287.929l1.349-.376-.862.774c.4,0,.862-.332,1.105-.243-.42.42-.376.287-.177.73-.575-.8-1.105.464-1.747,0V7.774c-.951-.6-1.725.663-2.963.332l.4.221c-.177.531-.774,0-1.194.287,0-.442-.221-.6-.376-.862,0,.31-.929,0-1.039.84l-.575-.575c-1.017-.243-1.15,1.238-2.211,1.083.287-.464-.155-.774.486-1.105-.31,0-.619,0-.619.221-.177-.287-.906.575-1.194.155-.155.2-.2.663-.553.619a.354.354,0,0,1,0-.221c0,.221-.575.31-.265.774-.995-1.349-2.808,0-3.67-1.061a13.619,13.619,0,0,1-2.211.31s0-.2,0-.155c-.884-.42-.553,1.238-1.57.8-.509-.707.553-.376.221-.663-.133-1.415-1.216.2-1.9-.641h.155c-.508-.486-1.26.531-2.211.442a.354.354,0,0,0,0-.221,4.422,4.422,0,0,1-2.5,1.172c.265-.553.376-.287.221-.862-.376,0,.111.906-.641,1.061-.221-.287-.752-.575-.818-1.172h.685c-.354-.774-.906,0-1.26,0V8.216c-1.061,0-1.083.973-2.211.906v.265c-.619.862-.531-.486-1.15.155l.42-1.083a10.811,10.811,0,0,1-2.211.995,6.146,6.146,0,0,1,1.813-1.349c-.4,0-1.371,0-1.592.486.155,0,.376-.287.531-.155a2.211,2.211,0,0,1-1.968.995c.155-1.68-2.211-.42-2.7-1.724-1.437.619-2.852-.287-4.422-.177.6,1.327-.486,0-.4,1.393h-.575l-1.172-.818c-.287-.4.376-.287.332-.6-.84,0-.354-.575-.929-.929.133.486-.287.685-.774.509l.685.619c-1.194.73-1.039-1.128-2.211-.42l.376-.42c-.619.243-2.211,0-2.874,1.061,0-.155-.265-.509,0-.619-1.481-.155-3.294,1.172-4.422.486V7.464c-.265,0-.464.619-.818.287,0-.133.111-.332,0-.332s-.73.575-1.083.376l.31-.376c-1.437-.42-2.211.906-3.427,1.128,0-.973-1.128-1.282-1.68-1.437V6.956a12.779,12.779,0,0,0-4.422,1.194c-.973-1.061-3.272-.442-4.82-1.039.243.177,0,.752-.31.84s-.995.685-.951-.2h.133c-.265-.862-1.017-.641-1.592-.663l-.111,1.172c-1.526-1.7-4,.619-4.82-.906-.376.31-.818.31-1.194.6V7.31a8.843,8.843,0,0,0-2.786,0l.243-.442c-.707,0-.884,1.813-1.548,1.835l-.2-.929c-1.238,0-2.5-.8-3.714,0,0-.133,0-.4.265-.442-.6,0-2.211-.641-2.056.641,0-.818-1.282,0-1.946.287V7.641c-.575.8-.6,1.017-1.371,1.238-.2,0-.177-.509,0-.354-.619-.31-.464.6-1.238.265l.287-.4c-.641,0-.6.177-.951.619s-1.216-.155-1.3-.707c0,.332-.442.8-.818.641a.442.442,0,0,1,.155-.42c-1.061-.42-1.592.73-2.211,0a.531.531,0,0,0,.155-.287,7.428,7.428,0,0,1,1.481,0c0-.575-.685-.663-.155-1.459-.553.442-1.481,1.371-2.211,1.105a1.749,1.749,0,0,1,0-.2h0a.464.464,0,0,0-.442,0,1.614,1.614,0,0,0-.553-.177c0-.464-.774-.243-1.128-.265,0,.619-.42.531,0,1.039l.287-.111c.287-.111,0,0,.155,0h.84c-.265.31-.553.575-.929.243l-.464.995c-.486-.862-1.393-1.327-1.5-1.879a5.174,5.174,0,0,1-.84.2h-1.15c-.884.155-1.614.42-1.747,1.017h0c-.133.354-.42,0-.619,0a6.31,6.31,0,0,0,.221-.707h0c-.354,1.017-1.371,2.211-.818,2.874-.73.442-.4-.752-.862.177v-.243c-2.211.973,0,3.891-2.741,4.842h.4c-2.034,1.724-2.344,4.8-4.731,6.257-.6.464-.2.818,0,1.415l-.641-.243.221,1.039c0,1.216-2.366.641-2.211,2.344h.464c-.332.354-.619,1.415-.995,1.061,0,0,.287.4,0,.42l-.31-.177L80.5,29.131c-.73.619-1.083-.884-1.879.2-.155.486,0,1.747.354,1.724a.641.641,0,0,1,.774-.133l-.111.486c.818.641,1.5,1.5,2.719.973v-.995h.553l-.332.553c.6,0,.376-.464.287-.862a.84.84,0,0,0,.641,0l-.4-1.194c.4.155.486.73.951.42-.177-.553-.951-.2-.862-.862.6,0,.862.243.752-.332a.464.464,0,0,1,.354.464c0-.509.464-.929,0-1.415.707,0,.619-1.172,1.393-.6a2.211,2.211,0,0,1,0-1.327c.619,1.194.8-1.083,1.747-.243-.6-.995.575-1.724.575-2.764,0,0,.133.265,0,.287.332-.354.685-.287,1.017-.442-.685-.531-.442-1.26-.663-1.9,1.039,0,.663.862,1.437,1.15-.619-.354,0-1.238-.619-1.393.685,0,.42-.2,1.15,0-.862-.663,0-.442-.265-1.128.818-.243.929.42,1.061-.354A5.766,5.766,0,0,1,91.181,20.442Zm9.728-8.645Zm1.437,0h-.707c0-.221,0-.442.155-.42s.332.221.553.4ZM99.295,7.509c.221,0,.31,0,.332.177h-.4A1.26,1.26,0,0,1,99.295,7.509Z" transform="translate(-75.793 -6.58)" fill="#ab6565"/>
  <text id="_0-2" data-name="0-2" transform="translate(31.136 128.273)" fill="#2f5f5f" font-size="77" font-family="FrederickatheGreatest, Fredericka the Greatest"><tspan x="0" y="0">0-2</tspan></text>
</svg>
